<svg xmlns="http://www.w3.org/2000/svg" width="882.5" height="1200" viewBox="0 0 706.000000 960.000000"><g transform="matrix(.1 0 0-.1 0 960)"><path d="m5046 9147c-37-57-88-196-93-252-5-52-1-71 27-138 17-42 61-131 97-198l64-120-25-67c-35-94-73-243-85-335-24-173-5-341 28-254 5 12 25 57 44 99 59 126 124 341 168 547 22 105 22 105 2 120-11 9-60 47-108 85l-87 69 4 228c3 182 2 229-9 233-7 3-19-5-27-17m154-653c0-8-4-12-10-9-5 3-10 13-10 21 0 8 5 12 10 9 6-3 10-13 10-21"/><path d="m820 9153c0-5 5-24 11-43 6-20 15-173 20-350 10-384 26-501 92-656 36-85 67-135 79-128 5 4 7 18 4 33-26 120-57 628-56 916l1 230-75 3c-42 2-76-1-76-5"/><path d="m1878 9133c-44-111-156-459-150-465 11-11 72 55 136 144 43 62 186 322 186 340 0 5-36 8-80 8-78 0-81-1-92-27"/><path d="m2360 9151c0-5-9-62-19-127-11-66-27-175-36-244-41-316-75-494-120-626-26-76-93-221-105-229-10-6-146 167-224 285-81 121-134 219-162 295-12 33-26 59-30 59-5-1-34-50-64-110l-55-109-204 4-203 3 6-38c4-22 8-84 10-139l4-100 44-3c40-3 44-1 62 33 53 98 163 155 356 186 36 5 74 12 86 15 17 5 24-2 38-43 10-26 21-57 26-68 5-11 23-54 41-95 47-112 112-238 154-300 20-29 41-74 46-100 6-25 13-146 16-270 4-181 2-248-11-340-28-187-75-353-146-506-47-103-87-161-242-354l-124-156-13-159c-7-88-19-236-27-330-39-480-49-942-25-1220 11-137 56-364 107-550 88-317 204-555 345-709 39-43 57-74 83-148 44-122 94-253 116-303 128-288 172-395 198-475 17-52 53-167 81-255 76-237 115-299 302-471 65-60 186-204 247-296 43-63 152-266 152-283 0-24-100-103-158-126-31-12-83-24-114-27l-57-4-49 103c-28 57-65 147-82 199-17 52-35 98-38 101-7 5-150-1-402-19l-104-7-9-38-9-39-197 7-196 7-94-36c-52-20-124-52-160-71-36-19-68-35-72-35-3 0-30 42-59 92-83 147-135 212-301 384-199 206-209 224-209 385 0 215 48 430 152 675 26 64 28 76 19 110-6 22-20 103-31 181-18 123-20 189-19 485 2 284-1 359-15 438-34 192-88 400-161 618-58 174-95 378-157 882-18 146-18 841 0 970 37 263 78 453 139 648l26 85 69 30c37 17 68 36 68 43 0 6-9 31-19 55-21 46-66 197-81 264-42 203-80 426-80 473 0 9-10 12-27 10-23-2-31-11-42-43-23-69-26-278-5-438 10-78 19-198 19-267-1-124-1-127-58-310-87-279-110-371-156-610-16-85-35-186-43-225-16-87-17-391 0-495 52-327 82-488 133-710 27-119 29-126 118-400 145-450 165-531 181-733 10-127 2-247-25-382-33-161-44-296-35-425 14-200-2-383-66-750-8-47-18-139-21-205-8-187 4-212 330-695 187-276 338-393 639-493 310-104 713-107 1133-9 157 37 335 97 370 125 71 56 98 166 67 268-48 156-135 307-319 555-224 300-286 406-346 585-29 88-112 283-204 484-83 180-132 304-173 435-18 58-63 200-101 315-86 269-87 271-104 394-14 92-14 121 0 265 14 148 31 258 55 361 102 432 140 617 140 685 0 65-25 329-39 415-83 498-94 599-88 829 5 193 10 230 72 496 56 241 72 355 85 620 12 249 32 372 82 523 77 232 91 307 143 807 17 160 58 388 75 420 22 41 13 50-45 50-30 0-55-4-55-9m-1045-881c7-11-65-82-80-77-12 4-19 52-11 73 6 16 81 20 91 4m856-407c-17-59-37-141-46-180-9-40-20-73-25-73-5 0-16 32-24 71-9 39-37 107-62 155-26 47-44 88-40 91 3 3 26-5 51-18 45-24 45-24 80-5 19 11 47 35 62 54 15 20 28 31 31 24 2-6-10-60-27-119m-1447-770c20-62 36-122 36-133 0-21-59-65-71-52-11 12-21 318-11 307 6-5 26-61 46-122m1231-631c-20-147-23-162-35-162-19 0-90 53-90 67 0 7 30 68 68 135 78 141 82 138 57-40m-91-192c-2-28 28-293 51-450 44-295 55-565 35-815-11-133-11-133-76-530-55-333-57-402-20-710 14-116 28-261 32-323l7-112 23 14c17 12 24 13 32 3 17-20 71-175 107-308 52-192 67-230 217-564 77-170 159-362 183-426 68-185 106-252 328-578 21-29 37-57 37-63 0-19-223 198-267 260-61 85-100 182-172 425-39 133-84 258-127 354-36 81-102 238-145 348-97 246-118 287-173 350-44 51-106 142-106 157 0 4 9 8 20 8 16 0 18 4 11 18-5 9-17 40-27 67-19 57-55 134-178 389l-87 179v491c-1 325 3 511 11 551 6 33 15 159 20 280 19 467 46 744 87 910l18 69 65 18c81 21 95 19 94-12m-1389-1010c4-118 4-212 1-209-8 8-41 187-57 309-25 193-12 449 29 565 4 11 10-86 13-215 3-129 10-332 14-450m1053-50c-2-104-8-162-16-175-11-17-12 7-7 140 3 88 9 183 13 210 6 47 7 48 10 15 2-19 2-105 0-190m527-183c0-140-3-163-34-287-58-232-61-220-27 94 14 121 28 254 31 294 6 55 10 71 19 62 7-7 11-63 11-163m-1214-2349c16-90 27-174 23-188-9-41-46-120-55-120-5 0-9 109-9 242 0 133 3 239 6 235 4-3 19-79 35-169m94-1366c122-121 177-188 251-310 61-100 89-130 142-154 29-13 48-31 62-57 10-21 45-62 77-90 61-54 59-61-9-34-206 81-396 297-642 727-39 67-19 53 119-82m1506-269c51-46 80-96 123-213 20-51 49-116 66-143 16-26 30-52 30-56 0-5-39-6-87-4-49 3-175-2-281-11-243-21-368-9-475 46-25 12-50 18-67 15-37-8-148 17-196 43-65 36-145 101-141 113 2 7 17 13 33 15 16 1 62 9 103 17 40 8 85 15 99 15 18 0 42 16 78 51l51 50 152-75c168-84 161-85 136 23-10 42-12 68-6 74 7 7 42 1 103-16 52-15 98-27 104-27 6 0 28 27 49 60 47 72 67 76 126 23m679-245c0-31-33-83-65-104-25-16-272-94-342-107-42-8-46 1-26 52 14 35 20 41 37 36 111-34 249 10 345 109 41 42 51 45 51 14m-1283-215l67-28-42-3c-44-3-136 17-193 42l-34 14 67 1c52 1 83-5 135-26"/><path d="m4255 9073c4-49 13-155 21-237 8-82 14-197 14-256 0-182-5-201-235-880-136-401-205-647-260-923-48-245-48-252 25-792 29-214 36-444 16-575-37-252-59-361-111-529-20-65-144-390-213-557-95-229-182-534-182-634 0-20 13-77 29-126 58-179 139-343 228-459 34-44 47-52 108-71 110-33 183-44 303-44 210 0 283 20 597 165 154 72 291 124 395 151 130 33 294 36 470 9 63-10 167-19 230-19 129-1 114-5 330 97 154 73 328 144 375 153l35 6v72c0 81 15 146 55 234 15 34 26 64 24 66-2 2-58 0-124-5-66-5-180-12-253-15l-133-7-37-64c-26-44-45-65-62-69-14-4-74-20-135-36l-110-30-95 16c-126 21-380 40-391 29-8-8 148-71 341-139 137-48 268-66 322-45 13 5 96 33 185 61 181 57 230 87 128 78-33-3-124-22-203-42-143-36-216-44-227-26-7 12 14 21 129 55 84 25 94 31 148 88l58 60 97 8c54 4 133 8 176 9 89 0 85 8 61-114-22-118-30-132-77-151-66-27-180-65-184-62-1 2 22 25 52 51 54 46 67 66 43 66-6 0-84-36-172-79-89-44-188-87-221-97-75-22-195-22-290 0-111 26-300 31-438 12-245-35-463-108-780-261-133-65-206-84-322-85-222-1-374 102-433 294-20 68-23 386-3 506 37 226 83 398 166 610 29 74 56 145 59 157 7 23 72 67 86 58 4-3 11-26 15-52 18-127 115-430 179-561 50-101 90-141 174-172 51-19 153-27 186-14 51 20-32 126-180 230l-91 63-46 108c-25 59-58 135-73 168-27 59-28 64-26 225 2 178-7 290-23 291-11 1-20-44-39-191-6-52-16-95-21-95-14 0-77 117-72 135 3 8 17 56 31 105 77 259 110 572 100 925-5 172-12 238-31 330-16 72-27 164-30 245-5 117-2 141 21 240 15 61 34 139 42 175 41 172 108 394 224 740 83 248 156 488 162 530 2 14 8 25 15 25 7 0 50-47 97-105 169-211 199-245 212-248 8-2 14-1 14 2 0 4-43 136-95 294-110 331-146 449-175 582-11 52-25 115-31 140-6 25-13 100-16 168l-6 122h-69-69l6-87m180-563c112-359 115-370 81-345-7 6-32 25-56 43-24 17-52 32-63 32-11 0-39-19-62-43-36-38-45-58-75-163-18-65-73-240-122-389-103-315-183-582-233-784-19-80-37-147-40-149-24-24 43 297 106 512 50 170 162 507 232 701 99 275 136 433 143 625 6 158 10 185 24 160 4-8 34-98 65-200m-546-2265c32-143 50-320 37-370-12-47-23-15-45 135-45 302-61 524-44 601 6 24 10-3 14-96 5-89 17-174 38-270m-89-1451c-7-7-16-14-21-14-13 0-11 34 3 48 18 18 34-14 18-34m462-702c26-24 48-48 48-53 0-18-57-8-97 18-38 24-83 85-83 113 0 17 74-27 132-78m-759-97c-10-69-16-188-17-322 0-117-4-213-8-213-14 0-49 81-68 156-18 69-18 81-5 157 22 123 96 349 110 335 2-2-3-53-12-113m2012-601l50-13-75 5c-41 3-91 9-110 13-31 8-29 9 25 9 33 0 83-6 110-14m-696-64c-35-20-476-218-509-228-133-40-117-18 43 58 173 82 253 116 357 151 85 28 142 38 109 19m-1114-191c36-23 63-44 61-47-21-20-136 45-136 77 0 16 2 15 75-30"/><path d="m5740 9156c0-237-13-311-88-486-65-153-98-284-137-545-31-211-37-245-57-340-11-55-24-113-27-130-7-30-7-30-87-33l-81-3-21-52c-33-82-69-213-87-317-18-108-18-501 0-507 14-4 105 563 121 750l6 77h71 70l-6-232c-9-365-43-540-158-801-23-51-53-130-69-177-29-89-41-117-175-425-141-325-180-470-180-681v-130l49-85c94-162 187-277 448-551 162-172 214-209 343-254 73-25 93-28 225-28 186 0 324 29 528 112 38 15 66 22 72 16 8-9 35-234 47-394 6-86-19-302-43-374-9-26-14-49-11-52 3-3 40 26 81 65 42 39 93 83 113 98l36 28-6 147c-4 82-11 179-17 216-6 37-14 127-18 201-5 104-10 136-22 142-29 15-190 39-260 39-53 0-102-9-193-37-116-34-129-36-272-37-165-1-216 9-329 66-67 34-118 83-334 323-175 194-217 252-258 350-25 61-29 82-28 160 1 113 31 204 185 575 61 146 114 274 119 285 30 74 106 323 129 425 27 124 39 220 56 450 23 321 34 413 71 590 18 91 36 174 38 185 3 11 19 77 36 148 16 70 44 184 60 255 17 70 37 154 45 187 23 99 55 236 70 300 8 33 21 94 30 135 9 41 20 91 25 110 4 19 11 55 15 80 4 25 13 67 21 94 8 27 14 53 14 58 0 4-36 8-80 8-44 0-80-2-80-4m-55-648c-14-75-58-254-66-268-16-29-9 63 10 145 20 82 47 155 57 155 3 0 3-15-1-32m-409-2209c-25-80-93-259-152-399-59-140-131-322-160-405-42-118-53-142-53-113-2 96 59 295 160 523 91 208 138 319 175 423 78 214 99 193 30-29m-347-1149c9-40 8-43-5-26-8 11-14 33-14 50 0 39 7 31 19-24m679-780c185-79 386-87 606-24 102 29 157 29 91 0-129-58-419-91-552-63-82 18-172 59-204 93-29 30-26 30 59-6m986-25c17-17 17-19 46-332 19-198 20-235 8-259-7-16-22-30-32-32-18-4-19 3-13 144 6 186-11 354-48 472-9 26 15 31 39 7"/><path d="m380 9053c0-117 68-524 124-743 8-30 34-134 59-230 25-96 47-186 48-200 6-36 36-38 46-3 4 15 8 116 8 223 0 187-1 200-32 316-17 67-54 182-82 255-42 113-77 209-143 392-15 38-28 34-28-10"/><path d="m1163 7655c-14-38-8-239 9-295 20-64 85-173 101-167 16 5 9 220-10 292-17 69-57 157-78 175-12 10-16 9-22-5"/><path d="m4639 7648c0-2-2-91-4-198-2-107-8-249-14-315-6-66-15-178-21-250-16-195-90-502-204-845-45-138-116-340-130-372-19-44-8-55 27-28 29 23 54 82 69 159 7 41 42 115 130 274 173 314 198 381 234 627 22 153 25 529 6 660-14 90-72 289-84 290-5 0-8-1-9-2"/><path d="m1233 6966c-8-13 7-420 16-429 11-11 68 80 93 150 16 45 21 83 22 173l1 115h-63c-35 0-66-4-69-9"/><path d="m833 6789c-38-58-41-120-9-249 14-58 26-114 28-125 3-17 13-21 61-25 32-3 61-2 63 2 2 3-4 40-15 80-10 40-31 132-46 203-15 72-28 136-31 143-6 22-23 13-51-29"/><path d="m756 6178c-26-41-82-262-101-397-15-105-19-446-6-506 11-54 26-27 43 82 9 59 24 153 33 208 28 178 65 635 51 635-3 0-12-10-20-22"/><path d="m4044 6043c-28-67-6-251 29-237 23 8 49 76 54 139 4 51 2 65-19 94-32 48-46 49-64 4"/><path d="m1023 6018c-6-7-13-31-16-53-3-22-27-164-53-315l-48-275-1-235c0-206 3-247 22-330 13-57 24-147 27-225 10-229 48-382 132-541 119-223 164-462 164-878 1-223 4-230 54-97 56 148 61 177 60 346 0 225-27 331-189 740-46 116-92 239-104 274-50 152-65 636-41 1289 7 167 10 305 7 308-2 2-9-1-14-8"/><path d="m4618 5643c-45-100-63-165-83-293-9-63-22-148-29-187l-13-73 61-45c34-25 66-45 72-45 7 0 13 52 17 153 8 206 26 485 32 525 5 25 2 32-10 32-10 0-28-25-47-67"/><path d="m4585 4740c-5-8 110-134 231-255 72-72 145-114 214-122 49-6 50-5 50 20 0 97-91 208-220 270-87 41-268 99-275 87m325-192c58-42 79-103 27-77-32 16-107 91-107 106 0 16 38 2 80-29"/><path d="m4790 3739c-74-10-171-25-215-34-44-8-104-18-132-22-29-3-53-10-53-15 0-7 24-56 47-97 2-4 55 4 333 45 153 23 281 66 333 112 13 12 15 17 5 24-21 13-174 7-318-13"/><path d="m1515 2946c-71-71-101-111-129-167-48-99-53-156-27-292 19-97 21-144 21-425-1-323 0-337 27-455 25-107 32-100 53 48 6 44 27 166 46 272 19 106 34 218 34 249 0 32-12 127-27 213-18 104-27 194-27 271l-1 115 39 70c21 39 56 96 77 127 44 65 45 68 23 68-9 0-58-42-109-94m-46-774c-1-96-17-108-18-14-1 53 3 81 9 77 6-3 10-32 9-63"/><path d="m1153 2394c-89-73-168-155-192-201-12-23-16-338-5-367 12-30 22-16 38 54 16 72 32 107 179 393 81 157 98 198 80 196-5 0-50-34-100-75"/><path d="m2580 1387c-58-5-108-14-111-19-4-6-3-24 2-42 4-17 11-48 14-68 3-21 11-38 16-38 18 0 143 77 165 102 38 41 51 84 25 76-3 0-53-6-111-11"/></g></svg>